<svg width="126" height="123" viewBox="0 0 126 123" fill="none" xmlns="http://www.w3.org/2000/svg">
<mask id="mask0" mask-type="alpha" maskUnits="userSpaceOnUse" x="0" y="0" width="126" height="124">
<path d="M62.7952 123C97.4761 123 125.59 95.4657 125.59 61.5001C125.59 27.5345 97.4761 0 62.7952 0C28.1144 0 0 27.5345 0 61.5001C0 95.4657 28.1144 123 62.7952 123Z" fill="white"/>
</mask>
<g mask="url(#mask0)">
<path d="M54.0115 23.2543C53.0325 23.0756 52.116 23.7009 51.9286 24.6562L50.1789 33.7826H32.3491C31.3631 33.7826 30.5716 34.5729 30.5716 35.5419V77.7654H23.4619V81.284H101.669V77.7654H94.5591V35.5419C94.5591 34.5729 93.7676 33.7826 92.7817 33.7826H74.9518L73.2022 24.6562C73.0147 23.7009 72.0982 23.0824 71.1192 23.2543C70.1542 23.4398 69.5223 24.3607 69.7029 25.3159L71.3345 33.7826H53.7963L55.4279 25.3159C55.6084 24.3607 54.9766 23.4398 54.0115 23.2543ZM43.9024 42.5792C45.3743 42.5792 46.5685 43.7612 46.5685 45.2181C46.5685 46.6751 45.3743 47.8571 43.9024 47.8571C42.4304 47.8571 41.2362 46.6751 41.2362 45.2181C41.2362 43.7612 42.4304 42.5792 43.9024 42.5792ZM70.543 50.9084L85.672 70.7281H54.4906L70.543 50.9084ZM55.4556 51.3757L60.3644 57.8494L49.929 70.7281H39.4588L55.4556 51.3757ZM40.3544 84.8026L37.7091 98.5472C37.5286 99.5024 38.1604 100.423 39.1255 100.609C39.2366 100.63 39.3546 100.636 39.4588 100.636C40.2989 100.636 41.0418 100.052 41.2084 99.2069L43.9787 84.8026H40.3544ZM60.7879 84.8026V93.5991C60.7879 94.5681 61.5794 95.3584 62.5654 95.3584C63.5513 95.3584 64.3428 94.5681 64.3428 93.5991V84.8026H60.7879ZM81.152 84.8026L83.9223 99.2069C84.0889 100.052 84.8318 100.636 85.672 100.636C85.7761 100.636 85.8941 100.63 86.0052 100.609C86.9703 100.423 87.6021 99.5024 87.4216 98.5472L84.7763 84.8026H81.152Z" fill="white"/>
</g>
</svg>
