<svg width="169" height="168" viewBox="0 0 169 168" fill="none" xmlns="http://www.w3.org/2000/svg">
<path d="M84.3193 0C60.3516 0 38.6962 10.0864 23.3739 26.2499C20.193 29.6034 17.2968 33.2546 14.6997 37.0927C14.4998 37.3918 14.3287 37.7067 14.1302 38.0059C14.0296 38.1626 13.8872 38.305 13.7865 38.4617C13.3451 39.1333 12.9453 39.8322 12.5311 40.5167C12.0034 41.3867 11.4339 42.2423 10.9335 43.1411C10.7207 43.5265 10.4632 43.8831 10.249 44.2829C10.0922 44.582 9.94986 44.8969 9.79312 45.196C9.37896 45.9812 9.03671 46.7937 8.65132 47.5932C8.46581 47.9772 8.26592 48.3482 8.08042 48.7336C7.68064 49.5892 7.30963 50.488 6.94005 51.3595C6.79625 51.7017 6.62512 52.044 6.48276 52.3862C6.11174 53.2994 5.79825 54.1981 5.456 55.1257C5.25611 55.6534 5.07061 56.1956 4.8851 56.7233C4.62769 57.4797 4.32858 58.2347 4.08555 59.0055C4.00071 59.2917 3.94319 59.6195 3.85834 59.9186C3.55779 60.9454 3.21554 61.9592 2.94519 63.0004C2.88767 63.229 2.88767 63.4562 2.83015 63.6849C2.51666 64.9546 2.1744 66.2676 1.91699 67.5647C1.90405 67.6366 1.93137 67.7229 1.91699 67.7933C1.66102 69.0775 1.43238 70.3617 1.23249 71.6746C1.04698 72.9156 0.904617 74.1854 0.776631 75.4408C0.762251 75.5113 0.791012 75.5975 0.776631 75.668C0.648646 77.0097 0.504842 78.3083 0.434379 79.6629C0.434379 79.706 0.434379 79.7348 0.434379 79.7779C0.362477 81.1757 0.319336 82.5878 0.319336 84C0.319336 130.322 37.9973 168 84.3193 168C130.641 168 168.319 130.322 168.319 84C168.319 37.678 130.641 0 84.3193 0ZM84.3193 7.30522V70.5328L29.4223 30.587C43.3612 16.2642 62.7919 7.30522 84.3193 7.30522ZM40.836 47.8204L81.3527 77.3807C82.2514 76.9809 83.2638 76.6962 84.3193 76.6962C86.1744 76.6962 87.8296 77.3807 89.1123 78.5225L123.694 66.9952L125.976 73.9568L91.5095 85.484C90.825 88.8074 87.8569 91.3038 84.3193 91.3038C80.2828 91.3038 77.0155 88.038 77.0155 84C77.0155 83.7426 77.1004 83.4435 77.1292 83.2019L36.4989 53.7552L40.836 47.8204Z" fill="white"/>
</svg>
