<svg width="168" height="168" viewBox="0 0 168 168" fill="none" xmlns="http://www.w3.org/2000/svg">
<path d="M39.9996 0C36.3535 0 33.3334 3.02137 33.3334 6.66619V13.3337H13.3335C9.46558 13.3337 6.66602 16.1332 6.66602 19.9999V43.3335H160V19.9999C160 16.1332 157.201 13.3337 153.333 13.3337H133.333V6.66619C133.333 3.02137 130.313 0 126.667 0H120C116.354 0 113.333 3.02137 113.333 6.66619V13.3337H53.3333V6.66619C53.3333 3.02137 50.3119 0 46.6671 0H39.9996ZM39.9996 6.66619H46.6671V26.6661H39.9996V6.66619ZM120 6.66619H126.667V26.6661H120V6.66619ZM6.66602 49.9997V153.333C6.66602 157.018 9.64802 160 13.3335 160H153.333C157.018 160 160 157.018 160 153.333V49.9997H6.66602ZM109.011 69.3354L114.609 72.9422L81.4063 124.466L55.2994 100.846L59.7658 95.8978L80.0518 114.258L109.011 69.3354Z" fill="white"/>
</svg>
