<svg width="26" height="26" viewBox="0 0 26 26" fill="none" xmlns="http://www.w3.org/2000/svg">
<path d="M12.8787 0.544178C12.7698 0.548037 12.665 0.586428 12.5805 0.65285L0.713362 9.91047C0.489721 10.0858 0.449299 10.4102 0.624596 10.6358C0.799893 10.8595 1.12449 10.8999 1.35016 10.7246L2.06353 10.1664V23.7301C2.06353 24.0143 2.2953 24.246 2.57927 24.246H9.71484C9.77131 24.2562 9.82778 24.2562 9.88222 24.246H15.9055C15.9618 24.2562 16.0182 24.2562 16.0727 24.246H23.2143C23.4985 24.246 23.7301 24.0143 23.7301 23.7301V10.1664L24.4455 10.7246C24.6691 10.8999 24.9937 10.8595 25.169 10.6358C25.3443 10.4102 25.3039 10.0858 25.0782 9.91047L21.1508 6.84532V3.09522H18.0556V4.42935L13.2133 0.65285C13.1184 0.578303 12.9996 0.540115 12.8787 0.544178ZM12.8968 1.71296L22.6984 9.36224V23.2143H16.508V13.4128H9.28564V23.2143H3.09521V9.36224L12.8968 1.71296ZM19.0872 4.1269H20.1191V6.03932L19.0872 5.23332V4.1269ZM10.3175 14.4444H15.4761V23.2143H10.3175V14.4444Z" fill="white"/>
</svg>
