<svg width="168" height="168" viewBox="0 0 168 168" fill="none" xmlns="http://www.w3.org/2000/svg">
<g clip-path="url(#clip0)">
<path d="M145.261 106.641C140.43 104.688 135.86 102.825 134.532 99.9876C134.323 97.461 134.349 95.4555 134.362 93.1639L134.376 92.3829C136.511 89.9745 138.398 85.6118 139.194 81.8226C140.938 80.7161 142.891 78.3458 143.476 73.2296C143.738 70.9892 143.36 68.9325 142.475 67.3956C144.415 62.3306 144.415 54.0107 141.25 47.6044C138.673 42.4095 134.402 39.2713 129.063 38.5941L127.604 35.3128C127.07 34.1014 125.886 33.3336 124.558 33.3336C119.506 33.3336 114.935 33.9715 110.886 35.2078C110.743 34.8692 110.626 34.5188 110.47 34.1933C107.149 27.4221 101.511 23.4242 94.4401 22.7601L92.3178 18.5023C91.7456 17.3828 90.5997 16.6661 89.3358 16.6661C75.1175 16.6661 63.9061 21.8886 57.7347 31.3806C56.6283 33.0986 55.7555 34.9217 55.0402 36.8104L54.2448 35.1947C53.6857 34.062 52.5267 33.3336 51.251 33.3336C40.222 33.3336 31.4585 37.4483 26.576 44.9216C22.435 51.2374 21.6279 59.3618 24.2975 66.9926C23.3853 68.4508 22.7868 70.4563 23.0729 72.9422C23.6859 78.0859 25.652 80.4694 27.4094 81.5758C28.2166 85.3388 30.1696 89.7658 32.3575 92.2005L32.3707 92.9303C32.3838 95.2599 32.3969 97.2786 32.1882 99.8432C30.86 102.708 26.2374 104.571 21.3549 106.55C12.6175 110.078 0.651487 114.923 -0.221325 129.805C-0.272513 130.729 0.0529871 131.628 0.690862 132.292C1.31561 132.956 2.18842 133.333 3.11242 133.333H24.0494C23.5034 135.299 23.1385 137.448 23.0086 139.805C22.943 140.716 23.2685 141.615 23.9064 142.279C24.5311 142.956 25.417 143.333 26.3292 143.333H140.34C141.25 143.333 142.136 142.956 142.761 142.292C143.386 141.615 143.711 140.716 143.659 139.805C143.529 137.448 143.164 135.299 142.618 133.333H163.333C164.245 133.333 165.13 132.956 165.756 132.292C166.381 131.628 166.719 130.729 166.667 129.805C165.794 114.974 153.933 110.169 145.261 106.641ZM30.1171 136.667C30.1171 117.292 63.4375 116.498 68.6849 102.227C69.1285 97.3442 68.9592 93.9317 68.9592 89.4797C66.7713 88.3076 62.696 80.9117 62.0319 74.6747C60.3125 74.5316 57.5917 72.8254 56.7976 66.1329C56.3671 62.5393 58.0734 60.5076 59.1024 59.8828C58.3332 53.3597 58.6338 46.7447 60.6642 40.95C61.264 38.854 62.1355 36.8485 63.3207 35.0136C67.0968 29.2058 73.49 25.456 81.6406 24.024C82.0317 23.9453 82.4229 23.8678 82.8258 23.8022C83.2432 23.7366 83.6724 23.6985 84.0884 23.646C84.9481 23.5423 85.7684 23.398 86.6675 23.3336L86.7187 23.4242C86.9142 23.4111 87.0967 23.3848 87.2922 23.373L89.3489 27.4864C89.9225 28.6204 91.0683 29.3357 92.3309 29.3357C97.8644 29.3357 101.954 31.9528 104.479 37.1228C104.675 37.5257 104.818 37.9811 104.987 38.3985C108.165 45.2996 108.647 54.5698 107.565 59.8828C108.959 60.2739 110.3 62.5393 109.87 66.1329C109.076 72.8254 106.355 74.5316 104.636 74.6747C103.971 80.9117 100.052 88.3076 97.8644 89.4797C97.8644 93.9317 97.6964 97.3442 98.1256 102.227C103.386 116.498 136.55 115 136.55 136.667H30.1171Z" fill="white"/>
</g>
<defs>
<clipPath id="clip0">
<rect width="168" height="168" fill="white"/>
</clipPath>
</defs>
</svg>
