<svg width="168" height="168" viewBox="0 0 168 168" fill="none" xmlns="http://www.w3.org/2000/svg">
<path d="M96.6273 6.66614C87.4476 6.66614 79.9611 14.1408 79.9611 23.3336C79.9611 32.5263 87.4476 39.9997 96.6273 39.9997C105.82 39.9997 113.293 32.5263 113.293 23.3336C113.293 14.1408 105.82 6.66614 96.6273 6.66614ZM146.666 6.66614V160H153.333V6.66614H146.666ZM79.154 40.0128C73.6191 40.3121 68.3206 43.9844 63.3331 51.0024L43.7112 81.3671C42.3173 83.5931 40.0913 88.2026 39.9995 91.094C39.817 97.8901 44.2703 103.984 51.3933 106.667L83.4366 119.519L83.4248 148.685C83.0468 151.536 83.9183 154.427 85.8201 156.589C87.7206 158.763 90.469 160 93.3591 160C98.3204 160 102.486 156.445 103.28 151.289L103.438 115C103.438 108.71 100.025 106.368 97.2914 104.492C96.8871 104.219 96.4842 103.945 95.8857 103.529L77.7207 93.1113L93.1767 69.6359L115.455 73.1771C117.278 73.5026 119.18 73.3858 120.951 72.8253L141.888 66.2497C146.132 64.1143 147.878 58.9194 145.78 54.6616C143.75 50.5469 139.752 49.0888 134.583 50.5338L118.19 54.1668C114.232 52.4343 86.9266 41.6009 84.7386 40.8463C82.8513 40.1953 80.9888 39.9223 79.154 40.0128ZM40.2081 107.331L34.6353 127.188L14.6485 141.041C10.1427 144.01 8.6714 150.013 11.3016 154.714C12.6955 157.188 14.974 158.958 17.7211 159.675C18.5808 159.882 19.4523 160 20.312 160C22.2138 160 24.088 159.466 25.7811 158.424L49.4271 142.604C51.2108 141.498 53.1376 139.453 54.5826 137.005L62.7083 118.385L49.0491 112.904C45.5986 111.602 42.6297 109.675 40.2081 107.331Z" fill="white"/>
</svg>
