<svg width="168" height="168" viewBox="0 0 168 168" fill="none" xmlns="http://www.w3.org/2000/svg">
<path d="M53.3335 9.99988C49.6611 9.99988 46.6673 12.995 46.6673 16.6661V63.3333C46.6673 65.1695 48.1636 66.6671 49.9997 66.6671H55.5464L32.0185 106.667H39.7531L63.2809 66.6671H79.9996V106.667H86.6671V66.6671H103.386L126.914 106.667H134.648L111.12 66.6671H116.667C118.503 66.6671 120.001 65.1695 120.001 63.3333V16.6661C120.001 12.995 117.005 9.99988 113.333 9.99988H53.3335ZM53.3335 26.666H113.333V59.9996H53.3335V26.666ZM59.9997 33.3335V39.9997H66.6672V33.3335H59.9997ZM73.3334 33.3335V39.9997H106.667V33.3335H73.3334ZM59.9997 46.6672V53.3334H66.6672V46.6672H59.9997ZM73.3334 46.6672V53.3334H106.667V46.6672H73.3334ZM13.3337 113.333C11.4976 113.333 10 114.831 10 116.667V143.333C10 145.169 11.4976 146.667 13.3337 146.667H26.6661V150H19.9999V156.667H29.4407C29.8043 156.732 30.1692 156.732 30.5209 156.667H39.9998V150H33.3336V146.667H46.6673C48.5022 146.667 49.9997 145.169 49.9997 143.333V116.667C49.9997 114.831 48.5022 113.333 46.6673 113.333H13.3337ZM66.6672 113.333C64.831 113.333 63.3334 114.831 63.3334 116.667V143.333C63.3334 145.169 64.831 146.667 66.6672 146.667H79.9996V150H73.3334V156.667H82.7729C83.1377 156.732 83.5026 156.732 83.8544 156.667H93.3332V150H86.6671V146.667H99.9994C101.836 146.667 103.333 145.169 103.333 143.333V116.667C103.333 114.831 101.836 113.333 99.9994 113.333H66.6672ZM120.001 113.333C118.164 113.333 116.667 114.831 116.667 116.667V143.333C116.667 145.169 118.164 146.667 120.001 146.667H133.333V150H126.667V156.667H136.106C136.471 156.732 136.836 156.732 137.188 156.667H146.667V150H140V146.667H153.333C155.169 146.667 156.667 145.169 156.667 143.333V116.667C156.667 114.831 155.169 113.333 153.333 113.333H120.001Z" fill="white"/>
</svg>
