<svg width="26" height="26" viewBox="0 0 26 26" fill="none" xmlns="http://www.w3.org/2000/svg">
<path d="M12.5 1C5.6025 1 0 6.6025 0 13.5C0 20.3975 5.6025 26 12.5 26C19.3975 26 25 20.3975 25 13.5C25 6.6025 19.3975 1 12.5 1ZM12.5 2.08696C18.8094 2.08696 23.913 7.19056 23.913 13.5C23.913 16.6165 22.6647 19.4337 20.6458 21.493C19.6523 20.7627 18.44 20.3954 17.4125 20.0302C16.8351 19.8243 16.315 19.6205 15.935 19.3933C15.5719 19.1747 15.3702 18.9518 15.262 18.6949C15.2131 18.0707 15.2238 17.5697 15.2259 16.9774C15.2938 16.9116 15.3766 16.8649 15.4445 16.7863C15.6038 16.5995 15.7651 16.3724 15.9201 16.1155C16.1833 15.676 16.3765 15.1389 16.4827 14.5954C16.6483 14.5105 16.8245 14.4935 16.9582 14.3216C17.2045 14.0074 17.3722 13.5637 17.4465 12.9459C17.5123 12.4003 17.3361 12.0245 17.1111 11.7379C17.3531 10.9418 17.6546 9.67442 17.5526 8.36455C17.4953 7.64275 17.3149 6.91882 16.8797 6.31377C16.4614 5.73845 15.7863 5.32447 14.9202 5.17374C14.3703 4.54959 13.4978 4.25662 12.4533 4.25662H12.4427C10.1053 4.29908 8.59587 5.26715 7.95049 6.74473C7.33696 8.14801 7.46858 9.89521 7.90803 11.7146C7.67238 12.0033 7.48556 12.3854 7.5535 12.9459C7.6278 13.5637 7.79552 14.0074 8.04178 14.3216C8.17553 14.4935 8.35173 14.5105 8.51732 14.5954C8.62347 15.1389 8.81666 15.676 9.07991 16.1134C9.23489 16.3702 9.39623 16.5974 9.55545 16.7842C9.62339 16.8649 9.70618 16.9116 9.77412 16.9774C9.77624 17.5697 9.78685 18.0707 9.73803 18.6949C9.62976 18.9518 9.42807 19.1747 9.06717 19.3933C8.68716 19.6205 8.16703 19.8264 7.59171 20.0345C6.5642 20.4017 5.35411 20.769 4.35632 21.4951C2.33526 19.4358 1.08696 16.6165 1.08696 13.5C1.08696 7.19056 6.19056 2.08696 12.5 2.08696ZM12.4575 5.34358C13.4596 5.3457 14.0901 5.64292 14.2642 5.9465L14.3958 6.1779L14.6591 6.21399C15.3426 6.30953 15.7248 6.57278 15.9986 6.95066C16.2704 7.33067 16.4232 7.85717 16.4678 8.44947C16.5612 9.63409 16.2216 11.0331 16.0071 11.6806L15.8713 12.0925L16.2407 12.3154C16.2024 12.2942 16.4147 12.4194 16.3659 12.8164C16.3086 13.3004 16.1855 13.5467 16.1027 13.6507C16.0199 13.7569 15.9838 13.7441 15.9923 13.742L15.5464 13.7802L15.4976 14.2261C15.4573 14.6103 15.2407 15.1347 14.9881 15.5529C14.8629 15.7631 14.727 15.9499 14.6145 16.0836C14.502 16.2174 14.3809 16.3002 14.4276 16.2747L14.1368 16.4276V16.7566C14.1368 17.4763 14.1071 18.0644 14.1814 18.9029L14.1899 18.9751L14.2154 19.0431C14.4276 19.6184 14.8756 20.0239 15.3766 20.3253C15.8776 20.6268 16.4551 20.8433 17.0495 21.0535C18.0282 21.4038 19.0472 21.7456 19.8263 22.2508C17.8435 23.911 15.2917 24.913 12.5 24.913C9.71043 24.913 7.15863 23.9131 5.1779 22.253C5.95915 21.7498 6.9803 21.4059 7.95686 21.0556C8.55129 20.8433 9.12661 20.6268 9.62763 20.3232C10.1265 20.0217 10.5724 19.6163 10.7846 19.0431L10.8101 18.9751L10.8186 18.9029C10.8929 18.0665 10.8632 17.4763 10.8632 16.7566V16.4276L10.5724 16.2747C10.6191 16.2981 10.498 16.2153 10.3855 16.0836C10.273 15.9499 10.1371 15.7631 10.0119 15.5529C9.75926 15.1347 9.54271 14.6103 9.50238 14.2261L9.45355 13.7802L9.00773 13.742C9.0141 13.7441 8.98013 13.7569 8.89733 13.6507C8.81454 13.5467 8.69141 13.3004 8.63409 12.8164C8.58526 12.4194 8.79968 12.292 8.75934 12.3154L9.10326 12.1073L9.00348 11.7146C8.53643 9.91644 8.46425 8.27751 8.94616 7.17782C9.42595 6.08025 10.3898 5.38392 12.4575 5.34358Z" fill="white"/>
</svg>
