<svg width="87" height="21" viewBox="0 0 87 21" fill="none" xmlns="http://www.w3.org/2000/svg">
<path d="M50.6366 20.9936C50.4337 21.001 50.2316 20.9641 50.043 20.8853C49.8544 20.8064 49.6835 20.6874 49.5411 20.5357C49.3987 20.384 49.288 20.203 49.2158 20.0041C49.1437 19.8052 49.1117 19.5927 49.122 19.3801C49.1146 19.1781 49.149 18.9768 49.2228 18.7901C49.2966 18.6033 49.408 18.4355 49.5495 18.2981C49.692 18.1501 49.8621 18.0345 50.0491 17.9585C50.2362 17.8825 50.4361 17.8477 50.6366 17.8563C50.8262 17.8361 51.0169 17.881 51.1801 17.9844L51.003 18.3621C50.8876 18.31 50.7618 18.288 50.6366 18.2981C50.3468 18.3074 50.0688 18.4204 49.8487 18.6182C49.6633 18.8252 49.5568 19.0963 49.5495 19.3801C49.5406 19.5322 49.5626 19.6846 49.614 19.8271C49.6655 19.9696 49.7453 20.099 49.8481 20.2068C49.9508 20.3145 50.0743 20.3982 50.2102 20.4521C50.3461 20.5061 50.4915 20.5292 50.6366 20.5198C50.6976 20.5198 50.8198 20.4622 50.8808 20.4622V19.6619H50.3923V19.1496H51.3633V20.8015L51.1801 20.8656C51.0068 20.9391 50.8232 20.9824 50.6366 20.9936ZM48.3342 17.8819V20.1036L47.0639 17.8819H46.6425V20.9936H47.0639V18.7719L48.3342 20.9936H48.7617V17.8819H48.3342ZM46.1539 17.8819H45.7325V20.9936H46.1661L46.1539 17.8819ZM43.6133 17.8819V18.3237H44.224V20.9936H44.7065V18.3237H45.3172V17.8819H43.6133ZM42.7644 19.5978C42.9278 19.5289 43.0725 19.419 43.1858 19.2777C43.2621 19.1208 43.3038 18.9479 43.308 18.7719C43.3096 18.6545 43.2888 18.538 43.2467 18.4293C43.2046 18.3205 43.1421 18.2217 43.063 18.1387C42.9838 18.0557 42.8896 17.9903 42.7859 17.9461C42.6821 17.902 42.571 17.8802 42.4591 17.8819H41.372V20.9936H41.7934V19.6619H42.3369L42.9476 20.9936H43.4912L42.7644 19.5978ZM41.7934 19.2137V18.3237H42.4591C42.5812 18.3237 42.6423 18.3877 42.7644 18.4518C42.8866 18.5158 42.8866 18.6438 42.8866 18.7719C42.8841 18.8887 42.8406 19.0004 42.7644 19.0856C42.6423 19.1496 42.5812 19.2137 42.4591 19.2137H41.7934ZM39.5521 20.9936C39.3511 21.0022 39.1506 20.9668 38.9635 20.8896C38.7763 20.8124 38.6065 20.6952 38.465 20.5454C38.2002 20.2293 38.049 19.8262 38.0375 19.4057C38.0503 19.0027 38.2022 18.6182 38.465 18.3237C38.6075 18.1757 38.7776 18.0601 38.9646 17.9841C39.1516 17.9081 39.3516 17.8733 39.5521 17.8819C39.7449 17.8675 39.9383 17.8998 40.1173 17.9764C40.2963 18.053 40.4561 18.1719 40.5842 18.3237C40.729 18.4561 40.8464 18.6181 40.9294 18.7997C41.0124 18.9814 41.0591 19.1789 41.0666 19.3801C41.0634 19.5943 41.019 19.8057 40.9361 20.0015C40.8532 20.1973 40.7335 20.3736 40.5842 20.5198C40.461 20.6798 40.303 20.8065 40.1233 20.8889C39.9437 20.9714 39.7477 21.0073 39.5521 20.9936ZM39.5521 18.3237C39.4166 18.3231 39.2824 18.3512 39.1576 18.4062C39.0327 18.4612 38.9197 18.542 38.8253 18.6438C38.7265 18.7357 38.6485 18.8494 38.5967 18.9767C38.545 19.104 38.5208 19.2418 38.526 19.3801C38.5144 19.5374 38.5364 19.6954 38.5902 19.8427C38.6441 19.99 38.7286 20.1229 38.8375 20.2317C38.9322 20.3327 39.0454 20.4125 39.1703 20.4664C39.2952 20.5203 39.4292 20.5472 39.5643 20.5454C39.7057 20.5441 39.8454 20.5123 39.9747 20.452C40.1039 20.3917 40.2199 20.3042 40.3156 20.195C40.4112 20.0857 40.4844 19.957 40.5306 19.8168C40.5768 19.6766 40.595 19.528 40.5842 19.3801C40.5933 19.237 40.5705 19.0936 40.5175 18.9613C40.4645 18.829 40.3827 18.7116 40.2788 18.6182C40.1828 18.5204 40.0689 18.4439 39.9441 18.3933C39.8192 18.3427 39.6859 18.319 39.5521 18.3237ZM36.3458 20.9936H35.9183V17.8819H37.0054C37.1188 17.8755 37.2322 17.8951 37.3377 17.9393C37.4431 17.9836 37.5381 18.0514 37.6161 18.138C37.7608 18.3185 37.8464 18.543 37.8604 18.7783C37.844 19.013 37.7586 19.2367 37.6161 19.4186C37.5381 19.5052 37.4431 19.573 37.3377 19.6172C37.2322 19.6615 37.1188 19.6811 37.0054 19.6747H36.3458V20.9936ZM36.3458 19.2137H37.0054C37.1275 19.2137 37.1825 19.1496 37.3046 19.0856C37.3601 18.992 37.3817 18.8808 37.3657 18.7719C37.3752 18.6612 37.354 18.5501 37.3046 18.4518C37.1825 18.3877 37.1275 18.3237 37.0054 18.3237H36.3458V19.2137ZM34.0434 17.8819V20.9936H35.558V20.4878H34.5259V19.6619H35.3137V19.2137H34.5259V18.3237H35.558V17.8819H34.0434ZM33.1334 19.5978C33.27 19.5107 33.3935 19.4028 33.4999 19.2777C33.5993 19.1311 33.6408 18.9499 33.6159 18.7719C33.6228 18.6534 33.605 18.5349 33.5639 18.4243C33.5228 18.3138 33.4593 18.2139 33.3777 18.1316C33.3036 18.0399 33.2092 17.9686 33.1027 17.924C32.9963 17.8793 32.881 17.8627 32.767 17.8755H31.6799V20.9872H32.1624V19.6619H32.651L33.3411 20.9936H33.8235L33.1334 19.5978ZM32.1624 19.2137V18.3237H32.7731C32.8843 18.3274 32.9905 18.3729 33.0724 18.4518C33.1334 18.5798 33.1945 18.6438 33.1945 18.7719C33.1921 18.8887 33.1486 19.0004 33.0724 19.0856C32.9905 19.1645 32.8843 19.2099 32.7731 19.2137H32.1624ZM30.2264 19.2137V18.964H29.805V19.2137H29.6768C29.5849 19.1976 29.4998 19.153 29.4325 19.0856C29.3877 19.0491 29.3528 19.0009 29.3314 18.9459C29.3099 18.8908 29.3027 18.8308 29.3103 18.7719C29.3028 18.712 29.3101 18.6511 29.3315 18.5951C29.3529 18.539 29.3877 18.4897 29.4325 18.4518C29.4998 18.3843 29.5849 18.3397 29.6768 18.3237H30.0371V17.8819H29.6768C29.5732 17.8758 29.4698 17.8959 29.3752 17.9405C29.2806 17.9851 29.1976 18.0528 29.1332 18.138C29.0417 18.2157 28.967 18.313 28.9144 18.4235C28.8617 18.5339 28.8322 18.6549 28.8279 18.7783C28.8568 18.9885 28.9414 19.1859 29.0722 19.3481C28.9422 19.4206 28.8359 19.532 28.7668 19.6683C28.7117 19.8079 28.6908 19.9597 28.7057 20.11C28.7004 20.2185 28.7198 20.3268 28.7623 20.4258C28.8048 20.5249 28.8691 20.612 28.95 20.6799C29.0246 20.7753 29.1176 20.8531 29.2228 20.9082C29.328 20.9634 29.4432 20.9947 29.5607 21H30.2264V19.6619H30.3486V19.2137H30.2264ZM29.805 20.4942H29.5607C29.4386 20.4942 29.3164 20.4942 29.2554 20.3661C29.1927 20.2952 29.1522 20.2058 29.1393 20.11C29.1397 19.9921 29.181 19.8783 29.2554 19.7899C29.3411 19.7143 29.4487 19.6714 29.5607 19.6683H29.805V20.4942ZM68.3229 16.3645C68.1307 16.3726 67.9391 16.3373 67.7611 16.2611C67.583 16.1849 67.4226 16.0695 67.2908 15.9227C67.15 15.7717 67.0401 15.5921 66.9676 15.3951C66.8952 15.1981 66.8618 14.9876 66.8694 14.7766C66.8679 14.576 66.9044 14.3771 66.9767 14.1914C67.0491 14.0056 67.1558 13.8368 67.2908 13.6946C67.4226 13.5478 67.583 13.4324 67.7611 13.3562C67.9391 13.28 68.1307 13.2447 68.3229 13.2528C68.5343 13.2259 68.7483 13.2708 68.9336 13.3809L68.7504 13.8226C68.6228 13.7425 68.4777 13.6984 68.329 13.6946C68.0573 13.7034 67.7984 13.8175 67.6022 14.0147C67.4249 14.2276 67.3178 14.4948 67.2969 14.7766C67.3058 15.0804 67.4136 15.3719 67.6022 15.6026C67.7984 15.7998 68.0573 15.9139 68.329 15.9227C68.4326 15.9333 68.5369 15.911 68.6283 15.8587V15.0263H68.1519V14.5781H69.0619V16.1788L68.9397 16.2428C68.7513 16.3499 68.535 16.3903 68.3229 16.3581V16.3645ZM66.0816 13.2528V15.4745L64.8113 13.2528H64.3227V16.3645H64.8113V14.1364L66.0327 16.3581H66.5152V13.2464L66.0816 13.2528ZM63.9013 13.2528H63.4127V16.3645H63.9013V13.2528ZM62.57 15.9227C62.4344 15.9244 62.2999 15.8969 62.1748 15.8418C62.0498 15.7867 61.9369 15.7053 61.8432 15.6026C61.738 15.4965 61.6561 15.3677 61.6034 15.225C61.5506 15.0823 61.5283 14.9293 61.5378 14.7766C61.5339 14.6341 61.5592 14.4924 61.6118 14.361C61.6645 14.2296 61.7434 14.1115 61.8432 14.0147C61.9369 13.912 62.0498 13.8306 62.1748 13.7755C62.2999 13.7204 62.4344 13.6929 62.57 13.6946C62.7378 13.6998 62.9025 13.7435 63.0524 13.8226V13.3168C62.8967 13.2646 62.7332 13.2429 62.57 13.2528C62.3686 13.2444 62.1678 13.2793 61.9798 13.3553C61.7918 13.4313 61.6206 13.5467 61.4768 13.6946C61.2258 13.9963 61.0775 14.3769 61.0554 14.7766C61.0658 15.1981 61.2146 15.6029 61.4768 15.9227C61.6206 16.0706 61.7918 16.186 61.9798 16.262C62.1678 16.338 62.3686 16.3729 62.57 16.3645C62.7332 16.3744 62.8967 16.3527 63.0524 16.3005V15.7947C62.902 15.8716 62.7373 15.9131 62.57 15.9163V15.9227ZM60.2675 14.9623C60.4133 14.892 60.5379 14.7813 60.6279 14.6422C60.6794 14.5707 60.7167 14.4891 60.7377 14.4022C60.7586 14.3153 60.7628 14.225 60.75 14.1364C60.7574 14.0173 60.7393 13.898 60.697 13.7872C60.6548 13.6765 60.5894 13.577 60.5057 13.4961C60.3401 13.3333 60.122 13.2419 59.895 13.24H58.8751V16.3517H59.2965V15.0263H59.779L60.4508 16.3581H60.9332L60.2675 14.9623ZM59.2965 14.5781V13.7522H59.9072C60.0294 13.7522 60.1515 13.7522 60.2126 13.8803C60.2498 13.9107 60.2801 13.9495 60.3013 13.9938C60.3224 14.0381 60.3338 14.0868 60.3347 14.1364C60.3335 14.2534 60.2898 14.3656 60.2126 14.4501C60.1291 14.5304 60.0205 14.576 59.9072 14.5781H59.2965ZM57.2995 16.3581C57.1636 16.3622 57.0284 16.3357 56.903 16.2805C56.7777 16.2253 56.665 16.1426 56.5727 16.038C56.4747 15.9397 56.3971 15.8213 56.3445 15.6903C56.292 15.5592 56.2657 15.4182 56.2674 15.276V13.2464H56.6949V15.276C56.6927 15.3596 56.7074 15.4427 56.7379 15.5199C56.7684 15.5971 56.8141 15.6667 56.872 15.7242C56.9875 15.8405 57.1395 15.9088 57.2995 15.9163C57.3788 15.9185 57.4577 15.9024 57.5305 15.8692C57.6033 15.8361 57.6683 15.7866 57.7209 15.7242C57.7805 15.6678 57.8277 15.5986 57.8593 15.5212C57.891 15.4438 57.9062 15.3602 57.9041 15.276V13.2464H58.3804V15.276C58.3832 15.4178 58.3581 15.5586 58.3066 15.6897C58.2551 15.8208 58.1784 15.9394 58.0812 16.038C57.9805 16.1471 57.8585 16.2322 57.7236 16.2874C57.5887 16.3426 57.4441 16.3668 57.2995 16.3581ZM54.3925 16.3581C54.2003 16.3662 54.0087 16.3309 53.8306 16.2547C53.6526 16.1785 53.4922 16.0631 53.3603 15.9163C53.2196 15.7652 53.1097 15.5857 53.0372 15.3887C52.9648 15.1917 52.9313 14.9812 52.939 14.7702C52.9375 14.5696 52.974 14.3707 53.0463 14.185C53.1186 13.9992 53.2254 13.8304 53.3603 13.6882C53.4922 13.5414 53.6526 13.426 53.8306 13.3498C54.0087 13.2735 54.2003 13.2383 54.3925 13.2464C54.5929 13.2378 54.7929 13.2725 54.9799 13.3486C55.1669 13.4246 55.337 13.5402 55.4795 13.6882C55.622 13.8265 55.7361 13.9937 55.8148 14.1798C55.8936 14.3658 55.9353 14.5667 55.9376 14.7702C55.9462 14.9812 55.913 15.1917 55.8399 15.3884C55.7668 15.5852 55.6556 15.7639 55.5132 15.9132C55.3708 16.0625 55.2003 16.1791 55.0127 16.2557C54.825 16.3323 54.6242 16.3672 54.423 16.3581H54.3925ZM54.3925 13.6882C54.121 13.6982 53.8625 13.8121 53.6657 14.0083C53.4883 14.2212 53.3812 14.4884 53.3603 14.7702C53.3693 15.074 53.477 15.3655 53.6657 15.5962C53.8625 15.7924 54.121 15.9063 54.3925 15.9163C54.682 15.9059 54.9597 15.7931 55.1803 15.5962C55.3672 15.3648 55.4728 15.0733 55.4795 14.7702C55.4626 14.4886 55.3574 14.2208 55.1803 14.0083C54.9597 13.8114 54.682 13.6985 54.3925 13.6882ZM51.7297 16.3581H51.6626C51.474 16.3462 51.2885 16.303 51.1129 16.23C50.9441 16.1064 50.8178 15.929 50.7526 15.7242L51.174 15.5962C51.174 15.6602 51.2961 15.7882 51.3572 15.8523C51.4601 15.8673 51.5621 15.8887 51.6626 15.9163C51.8125 15.9219 51.9601 15.877 52.084 15.7882C52.14 15.7583 52.187 15.7123 52.2194 15.6557C52.2517 15.5991 52.2683 15.5341 52.2672 15.4681C52.2672 15.276 52.084 15.1544 51.6564 15.0263C51.0457 14.8343 50.7465 14.5141 50.7465 14.0723C50.7435 13.9332 50.7751 13.7957 50.8383 13.6733C50.9015 13.5509 50.9941 13.4479 51.1068 13.3745C51.3128 13.2669 51.5435 13.2225 51.7725 13.2464C52.0646 13.2429 52.3467 13.3576 52.5603 13.5665L52.2 13.8803C52.1503 13.8126 52.085 13.7594 52.0101 13.7258C51.9353 13.6922 51.8535 13.6792 51.7725 13.6882C51.6492 13.6786 51.5256 13.7006 51.4122 13.7522C51.3489 13.7957 51.2946 13.8521 51.2526 13.9181C51.2106 13.9842 51.1818 14.0584 51.1679 14.1364C51.1679 14.3284 51.4122 14.4501 51.7786 14.5781C52.0721 14.6581 52.3425 14.8119 52.5664 15.0263C52.6641 15.1739 52.7075 15.3536 52.6886 15.5321C52.6835 15.6547 52.6543 15.7749 52.6028 15.8851C52.5513 15.9952 52.4786 16.0931 52.3893 16.1724C52.1908 16.2988 51.962 16.3632 51.7297 16.3581ZM49.0609 13.2464V16.3581H50.5144V15.8523H49.4884V15.0263H50.2762V14.5781H49.4884V13.7522H50.5144V13.2464H49.0609ZM48.096 14.9623C48.1733 14.9367 48.245 14.8952 48.3069 14.8402C48.3687 14.7853 48.4195 14.7179 48.4563 14.6422C48.5786 14.5055 48.6444 14.3237 48.6395 14.1364C48.6256 13.901 48.5399 13.6766 48.3952 13.4961C48.2224 13.3455 48.0087 13.2559 47.7845 13.24H46.6974V16.3517H47.1249V15.0263H47.6074L48.2731 16.3581H48.7617L48.096 14.9623ZM47.1249 14.5781V13.7522H47.7906C47.9128 13.7522 47.9738 13.7522 48.0349 13.8803C48.096 14.0083 48.1509 14.0083 48.1509 14.1364C48.1509 14.2644 48.1509 14.3925 48.0349 14.4501C48.0058 14.4891 47.9688 14.5209 47.9266 14.5431C47.8843 14.5652 47.8379 14.5772 47.7906 14.5781H47.1249ZM44.334 16.3581H44.2729C44.0844 16.3462 43.8988 16.303 43.7232 16.23C43.5544 16.1064 43.4281 15.929 43.3629 15.7242L43.7843 15.5962C43.7929 15.6512 43.814 15.7032 43.8459 15.7478C43.8778 15.7924 43.9196 15.8282 43.9675 15.8523C44.0897 15.8523 44.1507 15.9163 44.2729 15.9163C44.4214 15.9116 44.5664 15.8676 44.6943 15.7882C44.7504 15.7583 44.7973 15.7123 44.8297 15.6557C44.8621 15.5991 44.8786 15.5341 44.8775 15.4681C44.8775 15.276 44.6943 15.1544 44.2668 15.0263C43.6561 14.8343 43.3568 14.5141 43.3568 14.0723C43.3545 13.9326 43.387 13.7946 43.4513 13.6722C43.5156 13.5498 43.6094 13.4471 43.7232 13.3745C43.931 13.2657 44.164 13.2213 44.395 13.2464C44.683 13.2556 44.9591 13.3687 45.1767 13.5665L44.8164 13.8803C44.7636 13.8183 44.6985 13.769 44.6258 13.7358C44.5531 13.7027 44.4743 13.6864 44.395 13.6882C44.2697 13.6781 44.144 13.7001 44.0286 13.7522C43.9576 13.7858 43.8971 13.8396 43.8539 13.9075C43.8107 13.9755 43.7866 14.0548 43.7843 14.1364C43.7843 14.3284 43.9675 14.4501 44.395 14.5781C44.6862 14.6595 44.9543 14.8133 45.1767 15.0263C45.2465 15.1857 45.2879 15.3572 45.2989 15.5321C45.2938 15.6547 45.2646 15.7749 45.2131 15.8851C45.1616 15.9952 45.0889 16.0931 44.9996 16.1724C44.7993 16.3 44.5682 16.3644 44.334 16.3581ZM42.1537 16.3581H42.0926C41.9041 16.3462 41.7186 16.303 41.543 16.23C41.3742 16.1064 41.2478 15.929 41.1827 15.7242L41.6041 15.5962C41.6041 15.6602 41.7262 15.7882 41.7873 15.8523C41.8902 15.8673 41.9921 15.8887 42.0926 15.9163C42.2425 15.9219 42.3902 15.877 42.514 15.7882C42.5701 15.7583 42.617 15.7123 42.6494 15.6557C42.6818 15.5991 42.6984 15.5341 42.6972 15.4681C42.6972 15.276 42.514 15.1544 42.0865 15.0263C41.4758 14.8343 41.1766 14.5141 41.1766 14.0723C41.1736 13.9332 41.2052 13.7957 41.2684 13.6733C41.3316 13.5509 41.4241 13.4479 41.5369 13.3745C41.7446 13.2657 41.9777 13.2213 42.2087 13.2464C42.4988 13.2439 42.7787 13.3586 42.9904 13.5665L42.6301 13.8803C42.5772 13.8183 42.5122 13.769 42.4394 13.7358C42.3667 13.7027 42.288 13.6864 42.2087 13.6882C42.0834 13.6781 41.9576 13.7001 41.8422 13.7522C41.7789 13.7957 41.7247 13.8521 41.6827 13.9181C41.6407 13.9842 41.6119 14.0584 41.5979 14.1364C41.5979 14.3284 41.8422 14.4501 42.2087 14.5781C42.4998 14.6595 42.768 14.8133 42.9904 15.0263C43.0896 15.1756 43.133 15.3579 43.1125 15.5385C43.1074 15.6611 43.0782 15.7813 43.0267 15.8915C42.9752 16.0017 42.9026 16.0995 42.8133 16.1788C42.6159 16.3018 42.3894 16.3639 42.1598 16.3581H42.1537ZM39.4482 13.2464V16.3581H40.9628V15.8523H39.9185V15.0263H40.7063V14.5781H39.9185V13.7522H40.9445V13.2464H39.4482ZM38.5444 13.2464V15.4681L37.3229 13.2464H36.8405V16.3581H37.2619V14.1364L38.5383 16.3581H39.0207V13.2464H38.5444ZM36.3641 13.2464H35.9366V16.3581H36.3641V13.2464ZM34.5625 16.3581H34.5014C34.3149 16.3462 34.1314 16.3029 33.9579 16.23C33.7856 16.1088 33.6566 15.9308 33.5915 15.7242L34.019 15.5962C34.019 15.6602 34.1411 15.7882 34.2022 15.8523C34.303 15.8679 34.4029 15.8892 34.5014 15.9163C34.6533 15.9224 34.803 15.8775 34.9289 15.7882C34.9834 15.7568 35.0287 15.7104 35.0599 15.654C35.0911 15.5976 35.1071 15.5333 35.106 15.4681C35.106 15.276 34.9289 15.1544 34.4953 15.0263C33.8846 14.8343 33.5854 14.5141 33.5854 14.0723C33.5824 13.9325 33.6147 13.7943 33.679 13.6717C33.7434 13.5492 33.8375 13.4466 33.9518 13.3745C34.1571 13.2648 34.3884 13.2203 34.6175 13.2464C34.9093 13.2442 35.191 13.3587 35.4053 13.5665L35.0389 13.8803C34.9868 13.8172 34.9219 13.7672 34.849 13.734C34.7761 13.7007 34.6969 13.6851 34.6175 13.6882C34.4922 13.6781 34.3664 13.7001 34.251 13.7522C34.1292 13.8451 34.0443 13.9819 34.0129 14.1364C34.0129 14.3284 34.251 14.4501 34.6236 14.5781C34.9159 14.6611 35.1857 14.8146 35.4114 15.0263C35.5091 15.1739 35.5525 15.3536 35.5335 15.5321C35.5284 15.6554 35.4986 15.7761 35.446 15.8864C35.3934 15.9967 35.3192 16.0942 35.2282 16.1724C35.0279 16.3 34.7968 16.3644 34.5625 16.3581ZM32.199 16.3581C32.0589 16.3659 31.9188 16.3437 31.7872 16.2929C31.6555 16.242 31.5352 16.1635 31.4334 16.0623C31.3317 15.961 31.2507 15.8391 31.1954 15.7039C31.1402 15.5687 31.1118 15.4231 31.112 15.276V13.2464H31.5944V15.276C31.5923 15.3602 31.6075 15.4438 31.6392 15.5212C31.6708 15.5986 31.718 15.6678 31.7776 15.7242C31.8263 15.7914 31.8906 15.8443 31.9644 15.8779C32.0382 15.9115 32.119 15.9247 32.199 15.9163C32.359 15.9088 32.511 15.8405 32.6265 15.7242C32.7029 15.5881 32.745 15.4339 32.7487 15.276V13.2464H33.2311V15.276C33.2328 15.4182 33.2065 15.5592 33.154 15.6903C33.1014 15.8213 33.0238 15.9397 32.9258 16.038C32.8364 16.1397 32.7278 16.2207 32.6069 16.2758C32.4859 16.3309 32.3553 16.359 32.2235 16.3581H32.199ZM28.8096 16.3581V13.2464H29.7195C29.9434 13.2636 30.1568 13.3531 30.3302 13.5025C30.4139 13.5834 30.4793 13.6829 30.5215 13.7936C30.5638 13.9044 30.5819 14.0237 30.5745 14.1428C30.5821 14.2458 30.5698 14.3493 30.5383 14.4473C30.5068 14.5452 30.4568 14.6354 30.3913 14.7126C30.504 14.7868 30.5883 14.9001 30.6295 15.0327C30.7059 15.1665 30.748 15.3187 30.7516 15.4745C30.7585 15.593 30.7408 15.7115 30.6996 15.8221C30.6585 15.9326 30.595 16.0325 30.5134 16.1148C30.34 16.2642 30.1266 16.3537 29.9027 16.3709L28.8096 16.3581ZM29.2309 15.8523H29.9211C29.9782 15.8602 30.0362 15.8525 30.0897 15.8301C30.1432 15.8077 30.1903 15.7712 30.2264 15.7242C30.2637 15.6937 30.294 15.6549 30.3151 15.6106C30.3362 15.5663 30.3477 15.5176 30.3486 15.4681C30.3473 15.3511 30.3036 15.2389 30.2264 15.1544C30.1043 15.0904 30.0432 15.0263 29.9211 15.0263H29.2554L29.2309 15.8523ZM29.2309 14.5717H29.7195C29.8309 14.5692 29.9375 14.5236 30.0188 14.4437C30.096 14.3592 30.1397 14.247 30.1409 14.13C30.14 14.0804 30.1286 14.0317 30.1074 13.9874C30.0863 13.9431 30.056 13.9043 30.0188 13.8739C29.9577 13.7458 29.8417 13.7458 29.7195 13.7458H29.2309V14.5717Z" fill="#424141" fill-opacity="0.8"/>
<path d="M30.0983 4.59947H32.1023C32.2625 4.60418 32.4218 4.57344 32.569 4.50943C32.7161 4.44542 32.8476 4.34968 32.9541 4.22896C33.0858 4.11933 33.1884 3.97839 33.2526 3.81884C33.3168 3.65929 33.3406 3.48616 33.3218 3.31504C33.3354 3.14346 33.3093 2.97104 33.2455 2.81137C33.1817 2.6517 33.0819 2.50915 32.9541 2.39494C32.8476 2.27422 32.7161 2.17849 32.569 2.11447C32.4218 2.05046 32.2625 2.01973 32.1023 2.02443H30.0983V4.59947ZM30.0983 9.86686H28.701V0.622678H32.1023C32.8085 0.639397 33.4825 0.923851 33.9898 1.41927C34.4654 1.93589 34.7264 2.61657 34.7191 3.32121C34.7284 3.67016 34.6688 4.01749 34.5435 4.34296C34.4183 4.66844 34.2301 4.96555 33.9898 5.21698C33.7469 5.47394 33.4537 5.67739 33.1288 5.81449C32.804 5.95159 32.4544 6.01938 32.1023 6.01358H30.0983V9.86686ZM37.2072 4.59947V2.02443H39.156C39.3243 2.0201 39.4917 2.05076 39.6478 2.11451C39.8038 2.17826 39.9452 2.27372 40.063 2.39494C40.2984 2.64261 40.4301 2.97212 40.4307 3.31504C40.4376 3.48558 40.4094 3.65571 40.3478 3.8147C40.2861 3.97368 40.1925 4.11808 40.0727 4.23877C39.9529 4.35946 39.8096 4.45382 39.6519 4.5159C39.4941 4.57798 39.3252 4.60644 39.156 4.59947H37.2072ZM40.2714 5.7604C40.7476 5.5625 41.1519 5.22189 41.4296 4.78472C41.7041 4.34648 41.8349 3.83232 41.8034 3.31504C41.8099 2.96008 41.743 2.60765 41.6069 2.28019C41.4708 1.95273 41.2685 1.65743 41.0129 1.4131C40.5204 0.914887 39.8538 0.631104 39.156 0.622678H35.8099V9.88539H37.2072V6.0074H38.7883L40.7923 9.88539H42.3121L40.2714 5.7604ZM47.319 1.96268C46.8838 1.95028 46.4511 2.03143 46.0496 2.20073C45.648 2.37003 45.2869 2.62359 44.9902 2.94453C44.6803 3.24623 44.4341 3.60803 44.2667 4.00813C44.0992 4.40822 44.0139 4.83834 44.0158 5.27256C44.0236 6.14759 44.3738 6.98417 44.9902 7.60059C45.2874 7.92041 45.6488 8.17282 46.0503 8.34104C46.4519 8.50926 46.8843 8.58945 47.319 8.57626C47.7503 8.59156 48.1797 8.51223 48.5776 8.34377C48.9754 8.1753 49.3322 7.92172 49.6232 7.60059C49.9394 7.30372 50.1896 6.94283 50.3576 6.5416C50.5255 6.14038 50.6073 5.7079 50.5976 5.27256C50.6121 4.83657 50.5325 4.40262 50.3642 4.00067C50.196 3.59873 49.9432 3.23838 49.6232 2.94453C49.3325 2.6226 48.9759 2.36809 48.5781 2.19857C48.1803 2.02906 47.7507 1.94857 47.319 1.96268ZM47.319 9.99037C46.7051 9.99397 46.0969 9.87091 45.532 9.62878C44.9671 9.38664 44.4574 9.03055 44.0342 8.58243C43.5896 8.15717 43.2363 7.64462 42.996 7.07641C42.7556 6.50819 42.6334 5.89638 42.6369 5.27873C42.6418 4.01288 43.1442 2.80055 44.0342 1.90711C44.461 1.46757 44.9726 1.12082 45.5376 0.888226C46.1025 0.655635 46.7088 0.542143 47.319 0.554751C47.9368 0.541677 48.551 0.654137 49.1249 0.885421C49.6987 1.1167 50.2204 1.46208 50.6589 1.90093C51.0879 2.34789 51.4252 2.8758 51.6513 3.45438C51.8774 4.03297 51.9879 4.65084 51.9765 5.27256C51.9912 5.88619 51.8801 6.49628 51.6502 7.06471C51.4203 7.63314 51.0766 8.1477 50.6405 8.57626C50.2083 9.02259 49.6916 9.37714 49.1211 9.61895C48.5507 9.86077 47.9379 9.98496 47.319 9.98419V9.99037ZM55.7025 9.99037H55.5187C54.9422 9.96331 54.3807 9.79593 53.8824 9.50253C53.3063 9.21354 52.866 8.70784 52.6567 8.0946L53.9927 7.60676C54.041 7.76426 54.1201 7.91042 54.2254 8.03663C54.3306 8.16283 54.4599 8.26653 54.6056 8.3416C54.9115 8.47948 55.2394 8.56105 55.5738 8.58243C56.0563 8.61283 56.5326 8.46091 56.9098 8.15635C57.1708 7.96605 57.3469 7.67989 57.4001 7.35976C57.4001 6.74224 56.7873 6.31616 55.5126 5.95182C53.5699 5.40224 52.6567 4.42039 52.718 3.13596C52.7055 2.71583 52.8067 2.30017 53.0107 1.93357C53.2147 1.56696 53.514 1.26323 53.8763 1.05494C54.4904 0.661853 55.2176 0.487888 55.9415 0.560926C56.3852 0.565883 56.8233 0.660846 57.2297 0.840146C57.6361 1.01945 58.0025 1.27941 58.3071 1.60453L57.2653 2.51845C57.0878 2.33584 56.8748 2.19219 56.6396 2.09655C56.4044 2.0009 56.1522 1.95533 55.8986 1.96268C55.5231 1.92282 55.1438 1.98687 54.8017 2.14794C54.595 2.23671 54.4166 2.381 54.2858 2.56505C54.155 2.7491 54.077 2.96582 54.0601 3.19154C54.0601 3.74112 54.673 4.22896 55.9477 4.59947C56.8635 4.80636 57.6913 5.29904 58.3132 6.0074C58.6276 6.40867 58.8001 6.90413 58.8035 7.41533C58.781 7.78642 58.6729 8.1471 58.4878 8.4687C58.3027 8.7903 58.0456 9.06394 57.7371 9.26788C57.1626 9.7513 56.4323 10.0061 55.6841 9.98419L55.7025 9.99037ZM61.2916 4.60564H63.3017C63.461 4.61029 63.6194 4.5795 63.7656 4.51546C63.9117 4.45142 64.0421 4.35571 64.1474 4.23514C64.287 4.12922 64.399 3.9907 64.4738 3.8315C64.5485 3.67229 64.5837 3.49717 64.5764 3.32121C64.5779 3.14525 64.5402 2.97119 64.4659 2.81192C64.3917 2.65265 64.2828 2.51225 64.1474 2.40112C64.0421 2.28054 63.9117 2.18483 63.7656 2.1208C63.6194 2.05676 63.461 2.02596 63.3017 2.03061H61.2732L61.2916 4.60564ZM61.2916 9.87304H59.8759V0.622678H63.2833C63.9881 0.637891 64.6607 0.922682 65.1647 1.41927C65.6574 1.92973 65.9399 2.60932 65.9553 3.32121C65.9535 3.67404 65.8828 4.02306 65.7471 4.34834C65.6115 4.67362 65.4136 4.96879 65.1647 5.21698C64.9234 5.47438 64.6314 5.67818 64.3074 5.81535C63.9835 5.95251 63.6346 6.02003 63.2833 6.01358H61.2732L61.2916 9.87304ZM67.0645 0.610327V9.88539H71.7465V8.45893H68.4679V5.94565H71.0173V4.53772H68.4679V2.02443H71.7465V0.622678L67.0645 0.610327ZM81.7725 0.610327V2.02443H83.6601V9.88539H85.0573V2.02443H87V0.622678L81.7725 0.610327ZM81.411 7.95875L81.2884 8.20575C80.8367 8.78649 80.2521 9.24838 79.5847 9.55193C78.8852 9.89544 78.1134 10.0628 77.3356 10.0398C76.6441 10.0675 75.9552 9.93944 75.3191 9.66489C74.683 9.39034 74.1157 8.97624 73.6586 8.45276C72.8695 7.56087 72.4371 6.4056 72.4452 5.21081C72.4264 4.58255 72.5426 3.95763 72.7859 3.37887C73.0291 2.8001 73.3938 2.28119 73.8547 1.85771C74.3153 1.40434 74.8623 1.04969 75.4627 0.815139C76.063 0.580591 76.7043 0.471008 77.3479 0.493C77.738 0.472835 78.1288 0.51451 78.5061 0.616503C78.8886 0.674215 79.2579 0.799651 79.597 0.987011C80.2687 1.31185 80.853 1.79475 81.3006 2.39494L81.4232 2.63577L80.3262 3.49412L80.1485 3.25329C79.8302 2.81023 79.4095 2.45202 78.9228 2.20969C78.4273 1.98275 77.8855 1.87696 77.3417 1.90093C76.7283 1.88992 76.1224 2.03882 75.5829 2.33319C75.0859 2.64491 74.6666 3.06744 74.3572 3.56822C74.0653 4.09185 73.9172 4.68443 73.9282 5.28491C73.9147 5.74604 73.9982 6.20484 74.1734 6.63109C74.3221 7.04954 74.5704 7.42484 74.8965 7.72409C75.0321 7.87696 75.1967 8.00085 75.3807 8.08842C75.5724 8.2148 75.7781 8.31841 75.9935 8.39718C76.4393 8.56802 76.9139 8.64981 77.3907 8.63801C77.9136 8.65498 78.4334 8.55149 78.9106 8.33543C79.3809 8.0952 79.7979 7.76116 80.1363 7.35358L80.314 7.16833L81.411 7.95875ZM72.9416 0.00516358C73.0477 -0.0109437 73.1561 0.0109035 73.248 0.066915C73.3706 0.128666 73.4318 0.252169 73.4931 0.313921C73.5618 0.423976 73.6038 0.548793 73.6157 0.678254C73.5915 0.787113 73.5501 0.891355 73.4931 0.987011C73.4272 1.08214 73.344 1.16386 73.248 1.22784C73.1561 1.28385 73.0477 1.3057 72.9416 1.28959C72.8377 1.2987 72.7333 1.27725 72.6413 1.22784C72.5452 1.16386 72.4621 1.08214 72.3961 0.987011C72.3518 0.890422 72.3308 0.784608 72.3349 0.678254C72.3247 0.553555 72.3458 0.428279 72.3961 0.313921C72.4574 0.252169 72.5187 0.128666 72.6413 0.066915C72.7333 0.0175019 72.8377 -0.00394819 72.9416 0.00516358ZM72.9416 0.128666C72.8572 0.120376 72.7726 0.142233 72.7026 0.190418C72.58 0.252169 72.5187 0.313921 72.5187 0.375672C72.4574 0.493 72.3961 0.554751 72.3961 0.678254C72.3961 0.801757 72.4574 0.863508 72.4574 0.92526C72.5273 1.00154 72.6103 1.06432 72.7026 1.11051C72.7743 1.15431 72.8581 1.17379 72.9416 1.16609C73.0468 1.17445 73.1523 1.15531 73.248 1.11051L73.4318 0.92526C73.4806 0.852804 73.5023 0.765299 73.4931 0.678254C73.5033 0.573483 73.4819 0.468058 73.4318 0.375672C73.362 0.299396 73.2789 0.236614 73.1867 0.190418C73.1254 0.128666 73.058 0.128666 72.9416 0.128666ZM72.7026 0.987011V0.313921H73.058C73.1193 0.375672 73.1193 0.375672 73.1806 0.375672V0.493C73.1806 0.554751 73.1806 0.616503 73.1193 0.616503C73.058 0.616503 73.058 0.678254 72.9967 0.678254L73.058 0.740005L73.1806 0.863508L73.2419 0.987011H73.1193L73.058 0.92526C73.0263 0.857821 72.985 0.79541 72.9354 0.740005H72.7577V0.987011H72.7026ZM72.7638 0.616503H73.058V0.431248H72.7577L72.7638 0.616503Z" fill="#424141" fill-opacity="0.8"/>
<path opacity="0.35" d="M21.9742 0.456512H22.4227V21H21.9742V0.456512Z" fill="#414753"/>
<path d="M8.03816 1.82611L0.803816 5.56652L2.08992 6.21486L8.03816 3.24747L14.0482 6.21486L15.3343 5.53535L8.03816 1.82611ZM7.48785 10.5537L0 6.33954V15.4225L7.48167 19.6305L7.48785 10.5537ZM8.72449 19.5806L16.1443 15.435V6.33954L8.72449 10.4789V19.5806Z" fill="#424141" fill-opacity="0.8"/>
</svg>
