<svg width="64" height="105" viewBox="0 0 64 105" fill="none" xmlns="http://www.w3.org/2000/svg">
<path d="M32.4671 0C20.4123 0 10.6507 10.0488 10.6507 22.5094V23.1H25.5255C26.6179 23.1 27.5088 24.0434 27.5088 25.2C27.5088 26.3566 26.6179 27.3 25.5255 27.3H10.6507V31.5H25.5255C26.6179 31.5 27.5088 32.4434 27.5088 33.6C27.5088 34.7566 26.6179 35.7 25.5255 35.7H10.6507V39.9H25.5255C26.6179 39.9 27.5088 40.8434 27.5088 42C27.5088 43.1566 26.6179 44.1 25.5255 44.1H10.6507V48.8906C10.6507 61.3512 20.4123 71.4 32.4671 71.4C44.5219 71.4 54.2835 61.3512 54.2835 48.8906V44.1H39.4087C38.3086 44.1 37.4254 43.1566 37.4254 42C37.4254 40.8434 38.3086 39.9 39.4087 39.9H54.2835V35.7H39.4087C38.3086 35.7 37.4254 34.7566 37.4254 33.6C37.4254 32.4434 38.3086 31.5 39.4087 31.5H54.2835V27.3H39.4087C38.3086 27.3 37.4254 26.3566 37.4254 25.2C37.4254 24.0434 38.3086 23.1 39.4087 23.1H54.2835V22.5094C54.2835 10.0488 44.5219 0 32.4671 0ZM2.34565 35.9625C1.53218 36.143 0.958885 36.9223 0.982127 37.8V48.3C0.982127 64.5012 12.0143 78.0856 26.5172 81.0469V92.4H38.417V81.0469C52.92 78.0856 63.9521 64.5012 63.9521 48.3V37.8C63.9521 36.7828 63.1774 35.9625 62.2167 35.9625C61.256 35.9625 60.4813 36.7828 60.4813 37.8V48.3C60.4813 64.6817 47.9384 77.9625 32.4671 77.9625C16.9958 77.9625 4.45291 64.6817 4.45291 48.3V37.8C4.46066 37.275 4.25148 36.7746 3.88736 36.4219C3.51549 36.0691 3.02741 35.8969 2.53158 35.9625C2.46961 35.9625 2.40763 35.9625 2.34565 35.9625ZM13.6257 96.6C9.82953 96.6 6.74611 99.8813 6.74611 103.884L6.68413 105L58.0022 104.869L58.0642 103.884C58.0642 99.8813 54.9807 96.6 51.1846 96.6H13.6257Z" fill="white"/>
</svg>
