<svg width="168" height="168" viewBox="0 0 168 168" fill="none" xmlns="http://www.w3.org/2000/svg">
<path d="M39.9999 9.99988C34.5189 9.99988 30 14.5188 30 19.9998V146.667C30 152.149 34.5189 156.667 39.9999 156.667H106.667C112.148 156.667 116.667 152.149 116.667 146.667V106.667H146.667C152.136 106.667 156.667 102.148 156.667 96.6669V56.9926C156.667 51.341 152.018 46.6672 146.354 46.6672H116.667V19.9998C116.667 14.5188 112.148 9.99988 106.667 9.99988H39.9999ZM36.6675 33.3335H110.001V46.6672H83.6458C77.9824 46.6672 73.3335 51.341 73.3335 56.9926V96.6669C73.3335 102.148 77.8642 106.667 83.3334 106.667H89.5704C89.4142 107.76 89.4274 109.297 89.115 110.001C88.5152 111.419 87.6174 112.473 85.4032 113.802C84.1144 114.584 83.5027 116.119 83.907 117.565C84.3099 119.011 85.6251 120.001 87.1226 120.001C94.5579 120.001 103.776 116.524 108.541 106.667H110.001V130H36.6675V33.3335ZM83.6458 53.3334H112.774C113.138 53.399 113.503 53.399 113.854 53.3334H146.354C148.373 53.3334 150.001 54.9609 150.001 56.9926V96.6669C150.001 98.8798 148.868 99.9993 146.667 99.9993H106.667C105.273 99.9993 104.011 100.872 103.542 102.187C101.68 107.265 98.7238 109.882 95.4294 111.433C96.2629 108.945 96.6671 106.381 96.6671 103.333C96.6671 101.497 95.1696 99.9993 93.3334 99.9993H83.3334C81.1324 99.9993 79.9997 98.8798 79.9997 96.6669V56.9926C79.9997 54.9609 81.6272 53.3334 83.6458 53.3334ZM116.667 59.9996C114.831 59.9996 113.333 61.4971 113.333 63.3333C113.333 63.5289 113.346 63.7376 113.386 63.9318C109.48 65.2994 106.667 68.9718 106.667 73.3333V83.3332C106.667 85.1694 105.169 86.6669 103.333 86.6669V89.9994H113.333C113.333 91.8356 114.831 93.3331 116.667 93.3331C118.503 93.3331 120.001 91.8356 120.001 89.9994H130.001V86.6669C128.164 86.6669 126.667 85.1694 126.667 83.3332V73.3333C126.667 68.9587 123.854 65.2863 119.948 63.9187C119.974 63.7244 120.001 63.5289 120.001 63.3333C120.001 61.4971 118.503 59.9996 116.667 59.9996ZM63.3336 140H83.3334C85.1696 140 86.6672 141.498 86.6672 143.333C86.6672 145.169 85.1696 146.667 83.3334 146.667H63.3336C61.4974 146.667 59.9998 145.169 59.9998 143.333C59.9998 141.498 61.4974 140 63.3336 140Z" fill="white"/>
</svg>
