<svg width="26" height="26" viewBox="0 0 26 26" fill="none" xmlns="http://www.w3.org/2000/svg">
<path d="M6.19045 1.54761C5.3422 1.54761 4.64284 2.24697 4.64284 3.09522V4.5563C4.63289 4.61256 4.63289 4.66903 4.64284 4.72347V20.5483C4.63289 20.6046 4.63289 20.6611 4.64284 20.7155V22.6984C4.64284 23.5469 5.3422 24.246 6.19045 24.246H16.508C17.3562 24.246 18.0556 23.5469 18.0556 22.6984V20.7216C18.0655 20.6651 18.0655 20.6087 18.0556 20.5542V16.508H22.6984C23.5448 16.508 24.246 15.8086 24.246 14.9604V8.8203C24.246 7.94564 23.5266 7.22231 22.6501 7.22231H18.0556V4.72956C18.0655 4.6731 18.0655 4.61663 18.0556 4.56219V3.09522C18.0556 2.24697 17.3562 1.54761 16.508 1.54761H6.19045ZM6.19045 2.57928H16.508C16.7942 2.57928 17.0239 2.80902 17.0239 3.09522V4.12689H5.67472V3.09522C5.67472 2.80902 5.90425 2.57928 6.19045 2.57928ZM5.67472 5.15877H17.0239V7.22231H12.9452C12.0687 7.22231 11.3492 7.94564 11.3492 8.8203V14.9604C11.3492 15.8086 12.0504 16.508 12.8968 16.508H13.8621C13.8379 16.6772 13.8399 16.915 13.7916 17.0239C13.6988 17.2435 13.5598 17.4066 13.2172 17.6122C13.0177 17.7332 12.923 17.9709 12.9856 18.1945C13.0479 18.4184 13.2515 18.5715 13.4832 18.5715C14.6339 18.5715 16.0605 18.0334 16.798 16.508H17.0239V20.1191H5.67472V5.15877ZM12.9452 8.25399H17.4531C17.5094 8.26414 17.5659 8.26414 17.6203 8.25399H22.6501C22.9625 8.25399 23.2144 8.50586 23.2144 8.8203V14.9604C23.2144 15.3028 23.0391 15.4761 22.6984 15.4761H16.508C16.2923 15.4761 16.0969 15.6112 16.0243 15.8147C15.7361 16.6006 15.2787 17.0056 14.7688 17.2455C14.8978 16.8606 14.9604 16.4637 14.9604 15.992C14.9604 15.7079 14.7286 15.4761 14.4444 15.4761H12.8968C12.5562 15.4761 12.3809 15.3028 12.3809 14.9604V8.8203C12.3809 8.50586 12.6328 8.25399 12.9452 8.25399ZM18.0556 9.28566C17.7714 9.28566 17.5397 9.51742 17.5397 9.8016C17.5397 9.83186 17.5417 9.86416 17.5478 9.89422C16.9433 10.1059 16.508 10.6742 16.508 11.3492V12.8968C16.508 13.181 16.2762 13.4128 15.992 13.4128V13.9285H17.5397C17.5397 14.2127 17.7714 14.4444 18.0556 14.4444C18.3398 14.4444 18.5715 14.2127 18.5715 13.9285H20.1191V13.4128C19.835 13.4128 19.6032 13.181 19.6032 12.8968V11.3492C19.6032 10.6722 19.1679 10.1038 18.5634 9.89219C18.5675 9.86213 18.5715 9.83186 18.5715 9.8016C18.5715 9.51742 18.3398 9.28566 18.0556 9.28566ZM5.67472 21.1508H17.0239V22.6984C17.0239 22.9846 16.7942 23.2143 16.508 23.2143H6.19045C5.90425 23.2143 5.67472 22.9846 5.67472 22.6984V21.1508ZM9.80161 21.6667C9.61615 21.6647 9.44289 21.7614 9.34823 21.9227C9.2554 22.0838 9.2554 22.2812 9.34823 22.4425C9.44289 22.6038 9.61615 22.7004 9.80161 22.6984H12.8968C13.0823 22.7004 13.2555 22.6038 13.3502 22.4425C13.443 22.2812 13.443 22.0838 13.3502 21.9227C13.2555 21.7614 13.0823 21.6647 12.8968 21.6667H9.80161Z" fill="white"/>
</svg>
