<svg width="126" height="123" viewBox="0 0 126 123" fill="none" xmlns="http://www.w3.org/2000/svg">
<mask id="mask0" mask-type="alpha" maskUnits="userSpaceOnUse" x="0" y="0" width="126" height="124">
<path d="M63 123C97.7939 123 126 95.4657 126 61.5001C126 27.5345 97.7939 0 63 0C28.2061 0 0 27.5345 0 61.5001C0 95.4657 28.2061 123 63 123Z" fill="white"/>
</mask>
<g mask="url(#mask0)">
<path d="M103.333 20C79.993 20 63.6695 25.4666 54.8153 36.275C46.7487 46.1187 47.7004 57.0453 48.0942 59.7425C59.1275 42.8769 75.09 30.6444 93.5663 25.0925C94.4655 24.8234 95.3976 25.3616 95.6667 26.2475C95.9358 27.1334 95.4501 28.0784 94.564 28.3475C76.8359 33.6762 61.4838 45.4166 50.8772 61.6325C55.3338 61.0944 75.9301 58.01 90.6259 45.5675C87.9545 46.2237 85.3422 46.46 83.0122 46.46C77.6498 46.46 73.6985 45.2394 73.4032 45.1475C72.5171 44.8653 72.0248 43.8809 72.3005 42.995C72.5762 42.1156 73.5213 41.6694 74.4008 41.945C74.519 41.9844 86.4449 45.6003 96.3493 39.5825C96.4018 39.5497 96.5002 39.5562 96.5593 39.53C100.465 34.7656 103.471 29.0234 104.961 22.0475C105.066 21.5487 104.961 21.0237 104.646 20.63C104.324 20.2362 103.838 20 103.333 20ZM34.1271 63.68C33.2016 63.7653 32.519 64.5922 32.6043 65.5175C32.6896 66.4428 33.5166 67.1253 34.4421 67.04H61.3263C61.9301 67.0466 62.4946 66.7316 62.8031 66.2066C63.105 65.6816 63.105 65.0384 62.8031 64.5134C62.4946 63.9884 61.9301 63.6734 61.3263 63.68H34.4421C34.3896 63.68 34.3371 63.68 34.2846 63.68C34.2321 63.68 34.1796 63.68 34.1271 63.68ZM31.0816 68.72C25.5223 68.72 21 73.2416 21 78.8V93.92C21 99.4784 25.5223 104 31.0816 104H64.6868C70.2461 104 74.7684 99.4784 74.7684 93.92V78.8C74.7684 73.2416 70.2461 68.72 64.6868 68.72H31.0816Z" fill="white"/>
</g>
</svg>
