<svg width="168" height="168" viewBox="0 0 168 168" fill="none" xmlns="http://www.w3.org/2000/svg">
<g clip-path="url(#clip0)">
<path d="M162.694 73.6457L93.0203 3.97162C87.9291 -1.11957 78.9713 -1.24951 73.3066 3.98474L3.97113 73.6457C-1.32874 78.9456 -1.36812 87.5647 3.97113 93.3594L73.3066 162.695C75.8725 165.248 79.3349 166.667 83.0466 166.667C86.7059 166.667 90.2207 165.287 93.0203 162.695L162.356 93.3594C167.877 87.8259 168.034 78.9849 162.694 73.6457ZM77.9948 47.9942C77.9948 47.3314 78.3334 46.6672 79.3349 46.6672H87.0051C87.6692 46.6672 88.3334 47.0046 88.3334 47.9942V96.3283C88.3334 96.9924 87.9947 97.6697 87.0051 97.6697H79.3349C78.6707 97.6697 77.9948 97.3311 77.9948 96.3283V47.9942ZM88.672 118.998C88.672 119.662 88.3334 120.326 87.3306 120.326H79.3349C78.6707 120.326 78.0079 120.001 78.0079 118.998V110.001C78.0079 109.337 78.3334 108.672 79.3349 108.672H87.3306V108.998C88.0079 108.998 88.672 109.337 88.672 110.326V118.998Z" fill="white"/>
</g>
<defs>
<clipPath id="clip0">
<rect width="168" height="168" fill="white"/>
</clipPath>
</defs>
</svg>
