<svg width="26" height="26" viewBox="0 0 26 26" fill="none" xmlns="http://www.w3.org/2000/svg">
<path d="M14.9522 0.507814C14.668 0.513908 14.4403 0.747705 14.4444 1.03167V1.54761H12.3809C12.0969 1.54761 11.8651 1.77938 11.8651 2.06355V12.8968C11.8651 13.181 12.0969 13.4128 12.3809 13.4128H23.7301C24.0142 13.4128 24.246 13.181 24.246 12.8968V2.06355C24.246 1.77938 24.0142 1.54761 23.7301 1.54761H22.1825V2.57928H23.2143V4.12689H12.8968V2.57928H14.4444V3.09522C14.4424 3.28067 14.5391 3.45394 14.7003 3.5486C14.8616 3.64142 15.0591 3.64142 15.2203 3.5486C15.3814 3.45394 15.4781 3.28067 15.4761 3.09522V1.03167C15.4781 0.892736 15.4239 0.757658 15.325 0.658939C15.2262 0.56022 15.0914 0.505783 14.9522 0.507814ZM21.1427 0.507814C20.8585 0.513908 20.6308 0.747705 20.6348 1.03167V1.54761H15.992V2.57928H20.6348V3.09522C20.6328 3.28067 20.7297 3.45394 20.8908 3.5486C21.0521 3.64142 21.2495 3.64142 21.4108 3.5486C21.5719 3.45394 21.6688 3.28067 21.6667 3.09522V1.03167C21.6688 0.892736 21.6143 0.757658 21.5156 0.658939C21.4169 0.56022 21.2818 0.505783 21.1427 0.507814ZM10.2992 1.80152C10.2692 1.80355 10.2409 1.80558 10.2127 1.8137C7.95782 2.28313 6.40818 3.40763 5.41875 4.88069C4.4535 6.31536 4.01821 8.05452 3.81264 9.84181L1.72493 13.439C1.72493 13.441 1.72289 13.4448 1.72086 13.4469C1.36418 14.0877 1.59188 14.922 2.2368 15.2807C2.24493 15.2848 2.25082 15.2868 2.25691 15.2908L3.82869 16.0747L4.33244 19.5668C4.33244 19.5689 4.33244 19.5709 4.33244 19.5729C4.44538 20.2682 4.8041 20.9091 5.30988 21.3925C5.81566 21.8782 6.48678 22.2127 7.2223 22.1825H8.76991V24.246H9.19911C9.25538 24.2562 9.31185 24.2562 9.36628 24.246H9.80158V21.6667C9.80158 21.3826 9.56982 21.1508 9.28564 21.1508H7.20402C7.1961 21.1508 7.18797 21.1508 7.18188 21.1508C6.787 21.1668 6.36978 20.9816 6.02325 20.6491C5.67652 20.3166 5.42261 19.849 5.35213 19.4116L4.81019 15.6615C4.78602 15.4944 4.68121 15.3491 4.53008 15.2746L2.74055 14.38C2.57135 14.2852 2.52686 14.1241 2.62375 13.9488L4.74763 10.2913C4.78196 10.2288 4.80613 10.1583 4.81202 10.0858C4.9995 8.34458 5.42261 6.72242 6.27513 5.45695C7.12744 4.18945 8.39291 3.24635 10.4223 2.82324C10.6882 2.77083 10.8696 2.52302 10.8373 2.25489C10.8032 1.98494 10.5694 1.7875 10.2992 1.80152ZM12.8968 5.15877H23.2143V12.3809H12.8968V5.15877ZM14.4444 6.19044V7.22231H15.4761V6.19044H14.4444ZM16.508 6.19044V7.22231H17.5396V6.19044H16.508ZM18.5715 6.19044V7.22231H19.6032V6.19044H18.5715ZM20.6348 6.19044V7.22231H21.6667V6.19044H20.6348ZM14.4444 8.25399V9.28566H15.4761V8.25399H14.4444ZM16.508 8.25399V9.28566H17.5396V8.25399H16.508ZM18.5715 8.25399V9.28566H19.6032V8.25399H18.5715ZM20.6348 8.25399V9.28566H21.6667V8.25399H20.6348ZM14.4444 10.3175V11.3492H15.4761V10.3175H14.4444ZM16.508 10.3175V11.3492H17.5396V10.3175H16.508ZM18.5715 10.3175V11.3492H19.6032V10.3175H18.5715ZM20.6348 10.3175V11.3492H21.6667V10.3175H20.6348ZM20.5865 14.9543C20.3972 14.9644 20.2298 15.0751 20.1473 15.2445C20.0021 15.5326 19.853 15.7987 19.6917 16.0223C19.6899 16.0243 19.6899 16.0264 19.6879 16.0284C18.6863 17.459 18.0556 19.1458 18.0556 20.9412V24.246H18.4848C18.5412 24.2562 18.5977 24.2562 18.6519 24.246H19.0872V20.9412C19.0872 19.3895 19.6314 17.9105 20.53 16.6248L20.5321 16.6207C20.7397 16.3306 20.9129 16.0203 21.0701 15.7079C21.1548 15.5427 21.1467 15.3453 21.046 15.1901C20.9452 15.0349 20.7699 14.9441 20.5865 14.9543Z" fill="white"/>
</svg>
